<?xml version="1.0" encoding="UTF-8" standalone="no"?>
<svg
   xmlns:dc="http://purl.org/dc/elements/1.1/"
   xmlns:cc="http://creativecommons.org/ns#"
   xmlns:rdf="http://www.w3.org/1999/02/22-rdf-syntax-ns#"
   xmlns:svg="http://www.w3.org/2000/svg"
   xmlns="http://www.w3.org/2000/svg"
   id="svg14"
   preserveAspectRatio="xMidYMid meet"
   viewBox="0 0 512.000000 512.000000"
   height="312.000000pt"
   width="512.000000pt"
   version="1.0">
  <defs
     id="defs18" />
  <metadata
     id="metadata2">
Created by potrace 1.16, written by Peter Selinger 2001-2019
<rdf:RDF>
  <cc:Work
     rdf:about="">
    <dc:format>image/svg+xml</dc:format>
    <dc:type
       rdf:resource="http://purl.org/dc/dcmitype/StillImage" />
  </cc:Work>
</rdf:RDF>
</metadata>
  <g
     id="g12"
     stroke="none"
     fill="#000000"
     transform="translate(0.000000,512.000000) scale(0.100000,-0.100000)">
    <path
       id="path4"
       d="M561 5100 c-146 -39 -257 -105 -361 -217 -79 -84 -131 -171 -168 -278 l-27 -80 0 -560 0 -560 31 -88 c44 -121 86 -188 179 -283 90 -92 181 -149 300 -191 l80 -28 560 0 560 0 80 28 c215 75 383 234 464 438 51 128 52 152 49 719 l-3 525 -28 80 c-42 119 -99 210 -191 300 -93 91 -176 144 -291 183 l-80 27 -540 2 c-508 2 -544 1 -614 -17z m1127 -308 c74 -24 162 -81 207 -136 19 -23 49 -73 67 -112 l33 -69 0 -510 0 -510 -36 -76 c-48 -99 -119 -170 -218 -218 l-76 -36 -510 0 -510 0 -69 33 c-127 60 -203 143 -245 270 -20 59 -21 82 -21 536 0 446 1 478 20 539 40 128 150 240 280 284 64 22 75 22 542 23 436 0 481 -2 536 -18z" />
    <path
       id="path6"
       d="M3371 5100 c-248 -66 -441 -246 -528 -495 l-28 -80 0 -560 0 -560 28 -80 c88 -250 285 -432 536 -496 74 -19 108 -20 612 -17 l534 3 80 28 c227 80 407 260 483 484 l27 78 0 560 0 560 -27 80 c-40 118 -92 200 -188 295 -95 96 -177 148 -295 188 l-80 27 -540 2 c-508 2 -544 1 -614 -17z m1132 -310 c130 -40 247 -158 287 -288 19 -60 20 -94 20 -538 0 -454 -1 -477 -21 -536 -42 -127 -118 -210 -245 -270 l-69 -33 -510 0 -510 0 -76 36 c-99 48 -170 119 -218 218 l-36 76 0 510 0 510 33 69 c59 126 143 202 267 245 57 19 83 20 536 21 450 0 481 -1 542 -20z" />
    <path
       id="path8"
       d="M565 2291 c-148 -40 -266 -111 -367 -220 -79 -86 -122 -157 -162 -268 l-31 -88 0 -560 0 -560 27 -80 c41 -118 92 -200 188 -295 96 -96 178 -148 295 -188 l80 -27 560 0 560 0 80 28 c115 41 209 100 296 186 86 87 145 181 186 296 l28 80 3 525 c3 567 2 591 -49 719 -81 204 -249 363 -464 438 l-80 28 -540 2 c-500 2 -545 1 -610 -16z m1176 -332 c99 -48 170 -119 218 -218 l36 -76 0 -510 0 -510 -33 -69 c-42 -90 -87 -144 -158 -191 -112 -74 -117 -75 -649 -75 -445 0 -477 1 -538 20 -130 40 -247 158 -287 288 -19 60 -20 94 -20 538 0 454 1 477 21 536 39 116 115 205 219 258 96 49 95 49 620 47 l495 -2 76 -36z" />
    <path
       id="path10"
       d="M3388 2295 c-254 -63 -457 -249 -545 -500 l-28 -80 0 -560 0 -560 28 -80 c41 -115 100 -209 186 -296 87 -86 181 -145 296 -186 l80 -28 560 0 560 0 80 27 c118 41 200 92 295 188 96 96 148 178 188 295 l27 80 0 560 0 560 -27 78 c-38 111 -100 211 -187 298 -87 86 -181 145 -296 186 l-80 28 -540 2 c-434 1 -551 -1 -597 -12z m1156 -333 c127 -60 203 -143 245 -270 20 -59 21 -82 21 -536 0 -444 -1 -478 -20 -538 -40 -130 -157 -248 -287 -288 -61 -19 -93 -20 -539 -20 -454 0 -477 1 -536 21 -127 42 -210 118 -270 245 l-33 69 0 510 0 510 36 76 c57 119 154 203 284 245 31 10 154 13 535 11 l495 -2 69 -33z" />
  </g>
</svg>
